<svg width="381" height="116" viewBox="0 0 381 116" fill="none" xmlns="http://www.w3.org/2000/svg">
<path d="M237.909 110.958L170.557 102.833L170.863 100.292L237.658 23.2568C236.303 23.0933 233.19 22.8897 228.32 22.646L183.841 20.5037L184.592 14.2768L248.131 21.9416L247.824 24.4832L181.03 101.518C182.47 101.692 185.583 101.895 190.368 102.129L238.69 104.477L237.909 110.958Z" fill="black"/>
<path d="M7.44 81.672L4.704 50.76C6.496 50.184 8.608 49.672 11.04 49.224C13.504 48.744 16 48.504 18.528 48.504C20.288 48.504 22 48.648 23.664 48.936C25.36 49.224 26.928 49.72 28.368 50.424C29.424 53.016 29.952 55.72 29.952 58.536C29.952 61.352 29.408 64.12 28.32 66.84C27.264 69.528 25.744 71.976 23.76 74.184C21.776 76.392 19.392 78.168 16.608 79.512C13.856 80.856 10.8 81.576 7.44 81.672ZM12.672 77.64C14.72 76.808 16.384 75.544 17.664 73.848C18.944 72.152 19.888 70.248 20.496 68.136C21.104 66.024 21.408 63.912 21.408 61.8C21.408 59.528 21.072 57.48 20.4 55.656C19.728 53.8 18.736 52.488 17.424 51.72C17.104 51.72 16.752 51.752 16.368 51.816C16.016 51.88 15.664 51.96 15.312 52.056L12.672 77.64ZM59.3423 82.824L46.3343 68.808C46.1103 68.872 45.8703 68.92 45.6143 68.952C45.3903 68.984 45.1663 69.032 44.9423 69.096L43.6463 81.192L38.8463 81.672L36.1103 50.76C37.1023 50.44 38.3983 50.12 39.9983 49.8C41.6303 49.448 43.3903 49.16 45.2783 48.936C47.1663 48.712 49.0383 48.6 50.8943 48.6C52.6863 48.6 54.4303 48.776 56.1263 49.128C57.8543 49.48 59.3903 50.072 60.7343 50.904C61.3103 52.632 61.5983 54.216 61.5983 55.656C61.5983 57.8 60.9583 59.704 59.6783 61.368C58.3983 63.032 56.7183 64.456 54.6383 65.64L62.7023 80.952L59.3423 82.824ZM45.2783 66.024C47.5503 65 49.2943 63.64 50.5103 61.944C51.7263 60.248 52.3343 58.584 52.3343 56.952C52.3343 55.928 52.0783 54.952 51.5663 54.024C51.0863 53.096 50.3343 52.328 49.3103 51.72C48.8943 51.72 48.4623 51.768 48.0143 51.864C47.5983 51.928 47.1663 52.04 46.7183 52.2L45.2783 66.024ZM71.3494 81.72L66.5494 81L75.5254 49.08L87.1414 49.8L93.3814 81L89.0614 81.72L85.7494 73.752L72.9814 74.808L71.3494 81.72ZM84.6934 71.208L78.0214 55.128H77.6374L73.8454 71.112L84.6934 71.208ZM114.39 83.4L114.198 81.528C113.334 81.624 112.47 81.672 111.606 81.672C109.078 81.672 106.774 81.384 104.694 80.808C102.614 80.2 101.03 79.448 99.9416 78.552C99.3976 75.992 99.1256 73.336 99.1256 70.584C99.1256 67.672 99.4616 64.776 100.134 61.896C100.806 58.984 101.862 56.28 103.302 53.784C104.774 51.256 106.71 49.128 109.11 47.4L118.374 53.256C115.43 55.144 112.87 57.4 110.694 60.024C108.55 62.616 106.886 65.384 105.702 68.328C104.55 71.272 103.974 74.216 103.974 77.16C105.734 77.512 107.462 77.688 109.158 77.688C110.886 77.688 112.438 77.528 113.814 77.208L112.854 66.696L121.974 66.12L119.094 83.016L114.39 83.4ZM137.822 82.152C135.294 82.152 133.15 81.848 131.39 81.24C129.63 80.664 128.206 79.928 127.118 79.032C126.83 77.624 126.622 76.264 126.494 74.952C126.366 73.608 126.302 72.312 126.302 71.064C126.302 68.216 126.59 65.56 127.166 63.096C127.742 60.632 128.51 58.408 129.47 56.424C130.462 54.408 131.55 52.68 132.734 51.24C133.918 49.8 135.102 48.68 136.286 47.88C138.686 48.872 140.862 50.472 142.814 52.68C144.798 54.888 146.366 57.56 147.518 60.696C148.702 63.8 149.294 67.256 149.294 71.064C149.294 73.496 148.99 75.544 148.382 77.208C147.774 78.84 146.638 80.072 144.974 80.904C143.342 81.736 140.958 82.152 137.822 82.152ZM135.038 77.496C136.382 77.496 137.726 77.4 139.07 77.208C140.414 77.016 141.598 76.744 142.622 76.392C142.974 74.92 143.198 73.624 143.294 72.504C143.422 71.384 143.486 70.184 143.486 68.904C143.486 66.376 143.278 64.056 142.862 61.944C142.446 59.832 141.838 57.928 141.038 56.232C138.958 58.152 137.182 60.28 135.71 62.616C134.238 64.92 133.102 67.32 132.302 69.816C131.534 72.312 131.15 74.76 131.15 77.16C131.726 77.288 132.334 77.384 132.974 77.448C133.646 77.48 134.334 77.496 135.038 77.496ZM176.12 81.72L160.568 55.992H160.184L160.328 81L155.528 81.24L156.824 49.8L168.44 49.08L176.84 73.032H177.224L177.704 49.56L182.504 49.32L180.44 81L176.12 81.72Z" fill="#BC0000"/>
<path d="M236.72 81.432L234.464 49.8L245.888 49.08L242.432 77.544L254.72 76.056L254.528 81L236.72 81.432ZM260.954 81.432L258.698 49.8L279.866 49.128L279.722 52.344L269.594 53.544L268.346 63.48L278.57 63.384L278.81 67.704L267.962 66.888L266.666 77.592L279.914 76.056L279.722 81L260.954 81.432ZM289.537 81.72L284.737 81L293.713 49.08L305.329 49.8L311.569 81L307.249 81.72L303.937 73.752L291.169 74.808L289.537 81.72ZM302.881 71.208L296.209 55.128H295.825L292.033 71.112L302.881 71.208ZM341.889 82.824L328.881 68.808C328.657 68.872 328.417 68.92 328.161 68.952C327.937 68.984 327.713 69.032 327.489 69.096L326.193 81.192L321.393 81.672L318.657 50.76C319.649 50.44 320.945 50.12 322.545 49.8C324.177 49.448 325.937 49.16 327.825 48.936C329.713 48.712 331.585 48.6 333.441 48.6C335.233 48.6 336.977 48.776 338.673 49.128C340.401 49.48 341.937 50.072 343.281 50.904C343.857 52.632 344.145 54.216 344.145 55.656C344.145 57.8 343.505 59.704 342.225 61.368C340.945 63.032 339.265 64.456 337.185 65.64L345.249 80.952L341.889 82.824ZM327.825 66.024C330.097 65 331.841 63.64 333.057 61.944C334.273 60.248 334.881 58.584 334.881 56.952C334.881 55.928 334.625 54.952 334.113 54.024C333.633 53.096 332.881 52.328 331.857 51.72C331.441 51.72 331.009 51.768 330.561 51.864C330.145 51.928 329.713 52.04 329.265 52.2L327.825 66.024ZM372.088 81.72L356.536 55.992H356.152L356.296 81L351.496 81.24L352.792 49.8L364.408 49.08L372.808 73.032H373.192L373.672 49.56L378.472 49.32L376.408 81L372.088 81.72Z" fill="#BC0000"/>
</svg>
